<svg width="24" height="24" viewBox="0 0 24 24" fill="none" xmlns="http://www.w3.org/2000/svg">
<g clip-path="url(#clip0_1_169)">
<path d="M22.5575 10.3155C22.4593 10.2995 22.3599 10.2922 22.2604 10.2935H5.32893L5.69812 10.1217C6.059 9.95094 6.38731 9.71847 6.66833 9.43487L11.4164 4.68685C12.0417 4.08991 12.1468 3.12963 11.6653 2.41157C11.1051 1.64641 10.0306 1.48027 9.26537 2.04055C9.20355 2.08584 9.14479 2.13521 9.08957 2.18834L0.503632 10.7743C-0.167358 11.4445 -0.167949 12.5318 0.502291 13.2028C0.50272 13.2032 0.503203 13.2037 0.503632 13.2041L9.08957 21.79C9.7611 22.4597 10.8483 22.4582 11.518 21.7867C11.5707 21.7338 11.62 21.6776 11.6653 21.6183C12.1468 20.9003 12.0417 19.94 11.4164 19.343L6.67692 14.5864C6.42498 14.3342 6.13531 14.1227 5.81833 13.9597L5.30317 13.7278H22.1659C23.0432 13.7604 23.8128 13.1476 23.9776 12.2854C24.1294 11.3493 23.4936 10.4673 22.5575 10.3155Z" fill="#444134"/>
</g>
<defs>
<clipPath id="clip0_1_169">
<rect width="24" height="24" fill="white"/>
</clipPath>
</defs>
</svg>
